if (_typeface_js && _typeface_js.loadFace) _typeface_js.loadFace({"glyphs":{"0":{"ha":656,"x_min":35,"x_max":616,"o":"m 326 0 q 113 104 190 0 q 35 458 35 209 q 109 781 35 643 q 326 920 182 920 q 538 793 461 920 q 616 458 616 667 q 541 99 616 201 q 332 0 469 0 q 326 0 329 0 m 326 68 q 437 186 393 68 q 480 458 480 304 q 438 730 480 608 q 326 852 396 852 q 214 724 258 852 q 171 458 171 597 q 209 184 171 301 q 326 68 247 68 z "},"1":{"ha":326,"x_min":14,"x_max":312,"o":"m 14 0 l 14 35 q 77 47 60 35 q 95 90 95 60 l 95 825 q 77 873 95 863 q 14 884 60 884 l 14 920 l 312 920 l 312 884 q 248 873 266 884 q 231 825 231 863 l 231 90 q 248 47 231 60 q 312 35 266 35 l 312 0 l 14 0 z "},"2":{"ha":624,"x_min":14,"x_max":610,"o":"m 312 0 l 312 35 q 376 47 358 35 q 393 90 393 60 l 393 825 q 376 873 393 863 q 312 884 358 884 l 312 920 l 610 920 l 610 884 q 547 873 564 884 q 529 825 529 863 l 529 90 q 547 47 529 60 q 610 35 564 35 l 610 0 l 312 0 m 14 0 l 14 35 q 77 47 60 35 q 95 90 95 60 l 95 825 q 77 873 95 863 q 14 884 60 884 l 14 920 l 312 920 l 312 884 q 248 873 266 884 q 231 825 231 863 l 231 90 q 248 47 231 60 q 312 35 266 35 l 312 0 l 14 0 z "},"3":{"ha":922,"x_min":14,"x_max":909,"o":"m 14 0 l 14 35 q 77 47 60 35 q 95 90 95 60 l 95 825 q 77 873 95 863 q 14 884 60 884 l 14 920 l 312 920 l 312 884 q 248 873 266 884 q 231 825 231 863 l 231 90 q 248 47 231 60 q 312 35 266 35 l 312 0 l 14 0 m 610 0 l 610 35 q 674 47 656 35 q 692 90 692 60 l 692 825 q 674 873 692 863 q 610 884 656 884 l 610 920 l 909 920 l 909 884 q 845 873 863 884 q 827 825 827 863 l 827 90 q 845 47 827 60 q 909 35 863 35 l 909 0 l 610 0 m 312 0 l 312 35 q 376 47 358 35 q 393 90 393 60 l 393 825 q 376 873 393 863 q 312 884 358 884 l 312 920 l 610 920 l 610 884 q 547 873 564 884 q 529 825 529 863 l 529 90 q 547 47 529 60 q 610 35 564 35 l 610 0 l 312 0 z "},"4":{"ha":819,"x_min":14,"x_max":806,"o":"m 806 920 l 806 884 q 755 873 770 884 q 724 825 741 863 l 415 0 l 374 0 l 95 825 q 66 873 84 863 q 14 884 49 884 l 14 920 l 312 920 l 312 884 q 243 873 266 884 q 227 846 227 866 q 231 825 227 837 l 434 214 l 656 825 q 661 848 661 838 q 646 873 661 867 q 575 884 621 884 l 575 920 l 806 920 z "},"5":{"ha":819,"x_min":14,"x_max":806,"o":"m 806 920 l 806 884 q 764 872 779 884 q 724 825 749 860 l 461 477 l 724 90 q 761 50 746 65 q 806 35 776 35 l 806 0 l 507 0 l 507 35 q 585 49 562 35 q 597 68 597 56 q 589 90 597 77 l 385 380 l 163 90 q 153 66 153 76 q 163 49 153 56 q 244 35 182 35 l 244 0 l 14 0 l 14 35 q 57 49 43 35 q 95 90 71 62 l 350 429 l 95 825 q 57 872 73 860 q 14 884 41 884 l 14 920 l 312 920 l 312 884 q 235 871 258 884 q 222 850 222 863 q 231 825 222 840 l 426 526 l 656 825 q 668 850 668 839 q 654 869 668 861 q 575 884 627 884 l 575 920 l 806 920 z "},"6":{"ha":800,"x_min":14,"x_max":743,"o":"m 14 0 l 14 35 q 77 47 60 35 q 95 90 95 60 l 95 825 q 77 873 95 863 q 14 884 60 884 l 14 920 l 312 920 l 312 884 q 248 873 266 884 q 231 825 231 863 l 231 68 l 518 68 q 636 107 591 68 q 700 220 681 146 l 743 220 l 692 0 l 14 0 z "},"7":{"ha":890,"x_min":68,"x_max":822,"o":"m 68 458 q 157 774 68 643 q 420 920 247 906 q 469 921 446 921 q 576 911 527 921 q 670 879 646 898 q 694 871 684 871 q 704 875 700 871 q 711 905 711 882 q 711 920 711 911 l 754 920 l 822 681 l 781 681 q 617 834 700 800 q 488 857 562 857 q 412 852 452 857 q 245 682 304 830 q 200 471 200 567 q 203 418 200 444 q 274 171 217 263 q 461 68 331 79 q 669 130 589 73 q 781 304 749 187 l 822 304 q 690 75 789 149 q 420 0 591 0 q 170 118 271 0 q 68 458 68 236 z "},"8":{"ha":814,"x_min":14,"x_max":746,"o":"m 14 0 l 14 35 q 73 45 52 35 q 95 90 95 54 l 95 825 q 71 875 95 865 q 14 884 46 884 l 14 920 l 372 920 q 633 819 521 920 q 746 426 746 719 q 669 88 746 176 q 488 0 591 0 l 14 0 m 231 68 l 377 68 q 544 127 477 68 q 610 429 610 187 q 540 749 610 646 q 315 852 469 852 l 231 852 l 231 68 z "},"9":{"ha":1128,"x_min":14,"x_max":1115,"o":"m 14 0 l 14 35 q 77 47 60 35 q 95 90 95 60 l 95 825 q 77 873 95 863 q 14 884 60 884 l 14 920 l 201 920 l 556 350 l 906 920 l 1115 920 l 1115 884 q 1051 873 1069 884 q 1034 825 1034 863 l 1034 90 q 1051 47 1034 60 q 1115 35 1069 35 l 1115 0 l 817 0 l 817 35 q 880 47 863 35 q 898 90 898 60 l 898 789 l 591 296 l 529 193 l 163 789 l 163 90 q 180 47 163 60 q 244 35 198 35 l 244 0 l 14 0 z "},"@":{"ha":1042,"x_min":174,"x_max":868,"o":"m 174 0 l 174 868 l 868 868 l 868 0 l 174 0 m 846 22 l 846 846 l 195 846 l 195 22 l 846 22 z "},"#":{"ha":730,"x_min":47,"x_max":682,"o":"m 216 30 l 145 30 l 189 222 l 47 222 l 47 282 l 205 282 l 240 448 l 99 448 l 99 507 l 251 507 l 292 700 l 362 700 l 321 507 l 471 507 l 519 700 l 590 700 l 541 507 l 682 507 l 682 448 l 525 448 l 490 282 l 631 282 l 631 222 l 473 222 l 433 30 l 362 30 l 403 222 l 259 222 l 216 30 m 273 282 l 419 282 l 457 448 l 308 448 l 273 282 z "}," ":{"ha":665,"x_min":0,"x_max":0,"o":""},"$":{"ha":570,"x_min":33,"x_max":504,"o":"m 241 852 l 241 920 l 309 920 l 309 852 q 422 826 374 852 q 494 741 469 800 l 494 670 l 434 670 q 397 745 418 716 q 309 784 377 773 l 309 513 q 504 226 504 366 q 491 155 504 190 q 330 67 451 67 q 309 68 320 67 l 309 0 l 241 0 l 241 68 q 118 92 163 71 q 33 187 73 114 l 33 255 l 84 255 q 142 161 106 184 q 241 136 179 138 l 241 439 q 56 691 56 569 q 65 743 56 718 q 241 852 103 849 m 309 393 l 309 136 q 407 214 393 136 q 408 232 408 223 q 309 393 408 304 m 241 567 l 241 784 q 152 715 157 776 q 152 708 152 711 q 241 567 152 649 z "},"%":{"ha":760,"x_min":50,"x_max":693,"o":"m 507 798 q 358 757 424 757 q 258 787 302 757 q 155 637 236 640 q 60 770 60 640 q 60 777 60 774 q 157 920 62 914 q 255 868 212 914 q 376 830 298 830 q 681 914 491 830 l 165 0 l 50 0 l 507 798 m 590 274 q 693 144 688 269 q 693 132 693 138 q 598 14 693 19 q 488 141 495 14 q 488 155 488 149 q 590 274 488 269 m 605 49 q 638 112 638 58 q 633 159 638 132 q 586 239 618 239 q 572 236 580 239 q 540 173 540 226 q 544 132 540 155 q 597 48 557 48 q 605 49 601 48 m 152 684 q 191 783 191 694 q 191 789 191 786 q 161 873 190 872 q 152 871 157 873 q 117 764 117 854 q 144 682 117 682 q 152 684 148 682 z "},"&":{"ha":920,"x_min":26,"x_max":887,"o":"m 165 613 q 90 779 90 692 q 90 784 90 781 q 194 902 92 873 q 237 909 217 909 q 336 834 305 909 q 353 755 353 795 q 317 635 353 696 l 608 309 l 670 439 q 681 476 681 461 q 632 507 681 507 q 627 507 629 507 l 627 545 l 836 545 l 836 507 q 823 509 829 509 q 760 445 783 509 l 665 258 q 766 160 719 198 q 795 147 782 147 q 833 198 820 147 l 887 160 q 791 12 861 12 q 783 12 787 12 q 597 155 705 22 q 328 9 492 9 q 247 18 289 9 q 26 258 27 60 q 26 262 26 260 q 165 613 26 457 m 247 692 q 279 758 279 725 q 274 784 279 771 q 220 831 258 830 q 217 831 218 831 q 180 796 182 831 q 180 795 180 795 q 247 692 180 758 m 532 209 l 244 534 q 180 341 180 441 q 183 301 180 321 q 327 151 198 179 q 387 144 359 144 q 532 209 475 144 z "},"'":{"ha":293,"x_min":113,"x_max":185,"o":"m 160 543 l 138 543 l 117 729 q 113 801 113 772 q 127 861 113 851 q 149 869 138 869 q 171 861 159 869 q 185 801 185 851 q 180 729 185 772 l 160 543 z "},"(":{"ha":355,"x_min":41,"x_max":323,"o":"m 304 -241 l 304 -136 q 165 144 201 -52 q 150 319 150 231 q 174 534 150 427 q 323 814 217 730 l 323 920 q 76 560 144 781 q 41 330 41 448 q 73 99 41 216 q 304 -241 138 -141 z "},")":{"ha":355,"x_min":30,"x_max":311,"o":"m 49 -241 l 49 -136 q 187 144 152 -52 q 203 319 203 231 q 179 534 203 427 q 30 814 136 730 l 30 920 q 277 560 209 781 q 311 330 311 448 q 279 99 311 216 q 49 -241 214 -141 z "},"*":{"ha":526,"x_min":90,"x_max":436,"o":"m 252 700 q 117 604 146 604 q 111 605 113 604 q 90 633 90 614 q 91 640 90 637 q 241 719 95 665 q 91 798 95 773 q 90 804 90 801 q 111 833 90 823 q 117 833 113 833 q 252 738 146 833 q 236 869 236 827 q 244 906 236 899 q 263 914 254 914 q 282 906 273 914 q 290 869 290 899 q 274 738 290 827 q 410 833 380 833 q 415 833 413 833 q 436 804 436 823 q 435 798 436 801 q 285 719 431 773 q 435 640 431 665 q 436 633 436 637 q 415 605 436 614 q 410 604 413 604 q 274 700 380 604 q 290 568 290 610 q 282 532 290 538 q 263 524 273 524 q 244 532 254 524 q 236 568 236 538 q 252 700 236 610 z "},"+":{"ha":610,"x_min":68,"x_max":543,"o":"m 271 697 l 339 697 l 339 494 l 543 494 l 543 426 l 339 426 l 339 222 l 271 222 l 271 426 l 68 426 l 68 494 l 271 494 l 271 697 z "},",":{"ha":255,"x_min":27,"x_max":222,"o":"m 146 150 q 200 128 178 150 q 222 75 222 106 q 196 4 222 44 q 100 -95 171 -35 l 27 -95 q 71 75 71 -41 q 93 128 71 106 q 146 150 115 150 z "},"-":{"ha":456,"x_min":54,"x_max":404,"o":"m 54 426 l 54 494 l 404 494 l 404 426 l 54 426 z "},".":{"ha":233,"x_min":39,"x_max":189,"o":"m 114 150 q 167 128 145 150 q 189 75 189 106 q 167 22 189 44 q 114 0 145 0 q 61 22 83 0 q 39 75 39 44 q 61 128 39 106 q 114 150 83 150 z "},"/":{"ha":610,"x_min":14,"x_max":597,"o":"m 14 0 l 502 917 l 597 917 l 109 0 l 14 0 z "},":":{"ha":293,"x_min":68,"x_max":219,"o":"m 144 570 q 197 548 175 570 q 219 496 219 526 q 197 443 219 465 q 144 420 175 420 q 91 443 113 420 q 68 496 68 465 q 91 548 68 526 q 144 570 113 570 m 144 150 q 197 128 175 150 q 219 75 219 106 q 197 22 219 44 q 144 0 175 0 q 91 22 113 0 q 68 75 68 44 q 91 128 68 106 q 144 150 113 150 z "},";":{"ha":293,"x_min":24,"x_max":219,"o":"m 144 150 q 197 128 175 150 q 219 75 219 106 q 194 4 219 44 q 98 -95 168 -35 l 24 -95 q 68 75 68 -41 q 91 128 68 106 q 144 150 113 150 m 144 570 q 197 548 175 570 q 219 496 219 526 q 197 443 219 465 q 144 420 175 420 q 91 443 113 420 q 68 496 68 465 q 91 548 68 526 q 144 570 113 570 z "},"<":{"ha":434,"x_min":41,"x_max":393,"o":"m 312 730 l 393 730 l 122 458 l 393 187 l 312 187 l 41 458 l 312 730 z "},"=":{"ha":456,"x_min":54,"x_max":404,"o":"m 54 339 l 54 407 l 404 407 l 404 339 l 54 339 m 54 513 l 54 581 l 404 581 l 404 513 l 54 513 z "},">":{"ha":434,"x_min":41,"x_max":393,"o":"m 122 730 l 41 730 l 312 458 l 41 187 l 122 187 l 393 458 l 122 730 z "},"?":{"ha":640,"x_min":64,"x_max":570,"o":"m 241 150 q 295 128 273 150 q 317 75 317 106 q 295 22 317 44 q 241 0 273 0 q 188 22 210 0 q 166 75 166 44 q 188 128 166 106 q 241 150 210 150 m 315 231 l 163 231 q 187 419 163 347 q 334 515 212 491 q 410 555 385 526 q 434 662 434 583 q 400 793 434 754 q 320 852 366 833 q 262 860 288 860 q 190 840 220 860 q 156 780 156 816 q 163 746 156 764 q 174 702 174 722 q 138 640 174 665 q 115 633 125 633 q 68 711 78 633 q 64 749 64 731 q 121 871 64 829 q 285 920 186 920 q 296 920 290 920 q 498 853 426 920 q 570 659 570 787 q 533 510 570 567 q 404 439 496 453 q 334 396 347 423 q 315 231 320 369 z "},"`":{"ha":898,"x_min":14,"x_max":882,"o":"m 258 0 l 14 0 l 14 35 q 84 53 62 35 q 122 122 106 71 l 393 920 l 502 920 l 773 122 q 807 57 787 79 q 882 35 827 35 l 882 0 l 570 0 l 570 35 q 637 57 624 35 q 644 84 644 68 q 637 122 644 100 l 415 803 l 190 122 q 181 79 181 96 q 189 54 181 63 q 258 35 203 35 l 258 0 z "},"B":{"ha":787,"x_min":14,"x_max":719,"o":"m 14 0 l 14 35 q 76 47 57 35 q 95 90 95 60 l 95 825 q 76 871 95 857 q 14 884 57 884 l 14 920 l 391 920 q 609 871 534 920 q 684 708 684 822 q 640 549 684 602 q 524 496 597 496 q 670 430 621 496 q 719 250 719 363 q 644 54 719 109 q 445 0 570 0 l 14 0 m 231 526 l 385 526 q 507 566 467 526 q 548 697 548 605 q 506 821 548 789 q 385 852 464 852 l 231 852 l 231 526 m 231 68 l 412 68 q 537 114 491 68 q 583 244 583 160 q 538 407 583 355 q 388 458 494 458 l 231 458 l 231 68 z "},"e":{"ha":800,"x_min":27,"x_max":746,"o":"m 27 0 l 27 35 l 450 461 l 27 884 l 27 920 l 746 920 l 746 760 l 711 760 q 689 829 708 806 q 616 852 670 852 l 250 852 l 597 505 l 228 136 l 600 136 q 685 161 659 136 q 711 231 711 187 l 746 231 l 746 0 l 27 0 z "},"F":{"ha":795,"x_min":14,"x_max":732,"o":"m 14 0 l 14 35 q 77 47 60 35 q 95 90 95 60 l 95 825 q 77 873 95 863 q 14 884 60 884 l 14 920 l 732 920 l 732 760 l 692 760 q 667 830 692 808 q 602 852 643 852 l 231 852 l 231 90 q 248 47 231 60 q 312 35 266 35 l 312 0 l 14 0 z "},"G":{"ha":882,"x_min":68,"x_max":822,"o":"m 68 458 q 157 755 68 613 q 420 920 247 898 q 475 921 450 921 q 583 910 543 921 q 670 879 637 895 q 694 871 684 871 q 704 875 700 871 q 711 905 711 882 q 711 920 711 911 l 754 920 l 822 681 l 781 681 q 617 834 700 800 q 488 857 562 857 q 412 852 452 857 q 239 678 290 822 q 199 475 199 569 q 203 418 199 446 q 274 171 217 263 q 461 68 331 79 q 631 145 583 68 q 678 317 678 222 q 661 359 678 347 q 597 372 643 372 l 597 407 l 814 407 l 814 0 q 750 20 776 0 q 713 79 724 41 q 595 16 665 35 q 447 -1 535 0 q 420 0 434 -1 q 170 118 271 0 q 68 458 68 236 z "},"H":{"ha":825,"x_min":14,"x_max":811,"o":"m 14 0 l 14 35 q 77 47 60 35 q 95 90 95 60 l 95 825 q 77 873 95 863 q 14 884 60 884 l 14 920 l 312 920 l 312 884 q 248 873 266 884 q 231 825 231 863 l 231 526 l 594 526 l 594 825 q 576 873 594 863 q 513 884 559 884 l 513 920 l 811 920 l 811 884 q 746 873 765 884 q 729 833 730 864 q 730 825 729 829 l 730 90 q 747 47 730 60 q 811 35 765 35 l 811 0 l 513 0 l 513 35 q 576 47 559 35 q 594 90 594 60 l 594 458 l 231 458 l 231 90 q 248 47 231 60 q 312 35 266 35 l 312 0 l 14 0 z "},"I":{"ha":689,"x_min":27,"x_max":651,"o":"m 190 0 l 190 35 q 254 47 236 35 q 271 90 271 60 l 271 203 q 100 285 174 206 q 27 461 27 363 q 100 632 30 556 q 271 716 171 708 l 271 825 q 254 873 271 863 q 190 884 236 884 l 190 920 l 488 920 l 488 884 q 425 873 442 884 q 407 825 407 863 l 407 716 q 414 716 410 716 q 578 642 507 716 q 651 461 651 564 q 578 288 648 366 q 407 203 507 209 l 407 90 q 425 47 407 60 q 488 35 442 35 l 488 0 l 190 0 m 407 648 l 407 271 q 491 343 464 298 q 515 448 515 384 q 515 461 515 454 q 494 579 515 524 q 407 648 472 635 m 271 271 l 271 648 q 187 578 212 632 q 163 461 163 524 q 184 347 163 396 q 271 271 206 298 z "},"J":{"ha":326,"x_min":14,"x_max":312,"o":"m 14 -122 q 80 -53 65 -95 q 95 90 95 -11 l 95 825 q 77 873 95 863 q 14 884 60 884 l 14 920 l 312 920 l 312 884 q 248 873 266 884 q 231 825 231 863 l 231 90 q 176 -66 231 -8 q 14 -155 122 -125 l 14 -122 z "},"K":{"ha":868,"x_min":14,"x_max":854,"o":"m 14 0 l 14 35 q 77 47 60 35 q 95 90 95 60 l 95 825 q 77 873 95 863 q 14 884 60 884 l 14 920 l 312 920 l 312 884 q 248 873 266 884 q 231 825 231 863 l 231 494 l 567 830 q 583 856 583 845 q 576 869 583 863 q 513 884 559 884 l 513 920 l 743 920 l 743 884 q 684 873 703 884 q 632 830 665 863 l 412 610 l 730 90 q 776 49 749 62 q 854 35 803 35 l 854 0 l 513 0 l 513 35 q 585 50 559 35 q 600 72 600 59 q 594 90 600 80 l 334 529 l 231 426 l 231 90 q 248 47 231 60 q 312 35 266 35 l 312 0 l 14 0 z "},"N":{"ha":868,"x_min":14,"x_max":854,"o":"m 14 920 l 14 884 q 77 872 60 884 q 95 830 95 860 l 95 95 q 77 46 95 57 q 14 35 60 35 l 14 0 l 312 0 l 312 35 q 248 46 266 35 q 231 95 231 57 l 231 852 l 637 852 l 637 95 q 620 46 637 57 q 556 35 602 35 l 556 0 l 854 0 l 854 35 q 791 46 808 35 q 773 95 773 57 l 773 830 q 792 872 773 860 q 854 884 811 884 l 854 920 l 14 920 z "},"o":{"ha":1055,"x_min":68,"x_max":987,"o":"m 526 920 q 851 785 715 920 q 987 464 987 650 q 851 139 987 278 q 526 0 715 0 q 200 139 332 0 q 68 464 68 278 q 200 788 68 656 q 526 920 332 920 m 499 852 q 285 728 377 838 q 202 470 202 630 q 203 431 202 451 q 311 176 217 282 q 553 68 404 71 q 779 184 700 79 q 852 460 852 283 q 852 486 852 473 q 741 747 838 637 q 513 852 648 852 q 499 852 506 852 m 304 597 l 339 597 q 355 547 339 564 q 407 529 372 529 l 646 529 q 699 547 684 532 q 713 597 713 562 l 749 597 l 749 326 l 713 326 q 697 374 713 355 q 646 393 681 393 l 407 393 q 357 376 372 393 q 339 326 342 358 l 304 326 l 304 597 z "},"P":{"ha":697,"x_min":14,"x_max":629,"o":"m 14 0 l 14 35 q 77 47 60 35 q 95 90 95 60 l 95 825 q 77 873 95 863 q 14 884 60 884 l 14 920 l 312 920 q 540 872 450 920 q 629 673 629 825 q 549 480 629 534 q 363 426 469 426 l 231 426 l 231 90 q 248 47 231 60 q 312 35 266 35 l 312 0 l 14 0 m 231 494 l 350 494 q 460 537 429 494 q 491 689 491 581 q 452 821 491 789 q 320 852 412 852 l 231 852 l 231 494 z "},"Q":{"ha":1055,"x_min":68,"x_max":1031,"o":"m 526 920 q 851 785 715 920 q 987 464 987 650 q 851 139 987 278 q 553 0 715 0 q 716 -14 643 0 q 834 -39 789 -27 q 876 -43 849 -43 q 1031 -27 930 -43 q 817 -92 913 -92 q 808 -92 812 -92 q 635 -68 708 -90 q 483 -43 562 -43 q 293 -73 404 -43 q 499 0 353 0 q 200 139 332 0 q 68 464 68 278 q 200 788 68 656 q 526 920 332 920 m 499 852 q 285 728 377 838 q 202 470 202 630 q 203 431 202 451 q 311 176 217 282 q 553 68 404 71 q 779 184 700 79 q 852 460 852 283 q 852 486 852 473 q 741 747 838 637 q 513 852 648 852 q 499 852 506 852 z "},"r":{"ha":830,"x_min":14,"x_max":814,"o":"m 14 0 l 14 35 q 77 47 60 35 q 95 90 95 60 l 95 825 q 77 873 95 863 q 14 884 60 884 l 14 920 l 312 920 q 540 872 450 920 q 629 673 629 825 q 559 479 629 534 q 444 426 492 426 q 439 426 441 426 l 556 274 l 646 393 l 722 393 l 594 220 l 708 84 q 754 49 735 60 q 814 35 773 38 l 814 0 l 524 0 l 524 35 q 574 49 562 35 q 578 62 578 54 q 567 90 578 73 l 532 141 l 431 0 l 366 0 l 491 184 l 304 426 l 231 426 l 231 90 q 248 47 231 60 q 312 35 266 35 l 312 0 l 14 0 m 231 494 l 350 494 q 460 537 429 494 q 491 689 491 581 q 452 821 491 789 q 320 852 412 852 l 231 852 l 231 494 z "},"S":{"ha":662,"x_min":68,"x_max":594,"o":"m 103 0 l 68 176 l 103 176 q 199 90 149 111 q 331 68 250 68 q 425 110 391 68 q 458 236 458 152 q 423 345 458 309 q 307 410 388 380 q 159 509 217 439 q 100 689 100 578 q 165 856 100 792 q 331 920 231 920 q 400 911 377 920 q 458 882 423 903 q 484 872 475 872 q 495 876 491 872 q 500 890 500 881 q 494 920 500 902 l 534 920 l 564 779 l 526 779 q 435 842 461 833 q 331 852 410 852 q 255 810 285 852 q 225 713 225 768 q 262 605 225 651 q 385 524 298 559 q 521 439 448 499 q 594 263 594 380 q 514 68 594 136 q 331 0 434 0 q 252 5 282 0 q 195 27 222 11 q 164 40 176 40 q 155 37 158 40 q 146 10 146 29 q 146 0 146 5 l 103 0 z "},"T":{"ha":887,"x_min":22,"x_max":865,"o":"m 293 0 l 293 35 q 357 47 339 35 q 374 90 374 60 l 374 852 l 184 852 q 109 831 136 852 q 62 760 81 811 l 22 760 l 79 920 l 808 920 l 865 760 l 825 760 q 779 831 806 811 q 700 852 751 852 l 510 852 l 510 90 q 528 47 510 60 q 591 35 545 35 l 591 0 l 293 0 z "},"U":{"ha":819,"x_min":14,"x_max":806,"o":"m 806 920 l 806 884 q 755 873 770 884 q 724 825 741 863 l 415 0 l 374 0 l 95 825 q 66 873 84 863 q 14 884 49 884 l 14 920 l 312 920 l 312 884 q 243 873 266 884 q 227 846 227 866 q 231 825 227 837 l 434 214 l 656 825 q 661 848 661 838 q 646 873 661 867 q 575 884 621 884 l 575 920 l 806 920 z "},"V":{"ha":819,"x_min":14,"x_max":806,"o":"m 806 920 l 806 884 q 755 873 770 884 q 724 825 741 863 l 415 0 l 374 0 l 95 825 q 66 873 84 863 q 14 884 49 884 l 14 920 l 312 920 l 312 884 q 243 873 266 884 q 227 846 227 866 q 231 825 227 837 l 434 214 l 656 825 q 661 848 661 838 q 646 873 661 867 q 575 884 621 884 l 575 920 l 806 920 z "},"W":{"ha":1267,"x_min":14,"x_max":1253,"o":"m 1253 920 l 1253 884 q 1203 873 1218 884 q 1172 825 1188 863 l 863 0 l 822 0 l 640 532 l 415 0 l 374 0 l 95 825 q 66 873 84 863 q 14 884 49 884 l 14 920 l 312 920 l 312 884 q 243 873 266 884 q 227 846 227 866 q 231 825 227 837 l 434 214 l 605 629 l 543 825 q 514 873 532 863 q 461 884 496 884 l 461 920 l 760 920 l 760 884 q 690 873 713 884 q 675 846 675 866 q 678 825 675 837 l 882 214 l 1104 825 q 1109 848 1109 838 q 1093 873 1109 867 q 1023 884 1069 884 l 1023 920 l 1253 920 z "},"Y":{"ha":817,"x_min":14,"x_max":800,"o":"m 800 920 l 800 863 q 761 849 770 863 q 751 806 751 836 q 675 555 751 665 q 477 439 600 445 l 477 90 q 495 47 477 60 q 559 35 513 35 l 559 0 l 260 0 l 260 35 q 324 47 307 35 q 342 90 342 60 l 342 439 q 133 559 203 450 q 62 806 62 667 q 63 816 63 811 q 53 848 63 838 q 14 863 41 860 l 14 920 l 95 920 q 149 892 130 920 q 171 808 168 865 q 213 589 171 675 q 342 502 255 502 l 342 825 q 328 869 342 854 q 260 884 315 884 l 260 920 l 559 920 l 559 884 q 494 869 510 884 q 477 825 477 854 l 477 502 q 594 595 551 502 q 643 806 637 689 q 659 888 643 857 q 719 920 675 920 l 800 920 z "},"Z":{"ha":933,"x_min":68,"x_max":865,"o":"m 68 0 l 68 35 l 700 852 l 293 852 q 175 812 220 852 q 111 700 130 773 l 68 700 l 119 920 l 865 920 l 865 884 l 222 68 l 640 68 q 758 107 713 68 q 822 220 803 146 l 865 220 l 814 0 l 68 0 z "},"[":{"ha":258,"x_min":27,"x_max":231,"o":"m 231 0 l 27 0 l 27 920 l 231 920 l 231 852 l 95 852 l 95 68 l 231 68 l 231 0 z "},"\\":{"ha":610,"x_min":14,"x_max":597,"o":"m 597 0 l 109 917 l 14 917 l 502 0 l 597 0 z "},"]":{"ha":258,"x_min":27,"x_max":231,"o":"m 27 0 l 231 0 l 231 920 l 27 920 l 27 852 l 163 852 l 163 68 l 27 68 l 27 0 z "},"A":{"ha":1085,"x_min":14,"x_max":1072,"o":"m 14 0 l 543 920 l 1072 0 l 14 0 m 157 68 l 844 68 l 502 665 l 157 68 z "},"E":{"ha":879,"x_min":27,"x_max":852,"o":"m 217 597 l 252 597 q 269 547 252 564 q 320 529 285 529 l 559 529 q 612 547 597 532 q 627 597 627 562 l 662 597 l 662 326 l 627 326 q 610 374 627 355 q 559 393 594 393 l 320 393 q 270 376 285 393 q 252 326 255 358 l 217 326 l 217 597 m 27 0 l 27 222 l 62 222 q 77 153 62 171 q 122 136 92 136 l 757 136 q 803 153 789 136 q 817 222 817 171 l 852 222 l 852 0 l 27 0 m 27 920 l 27 697 l 62 697 q 77 766 62 749 q 122 784 92 784 l 757 784 q 803 766 789 784 q 817 697 817 749 l 852 697 l 852 920 l 27 920 z "},"O":{"ha":814,"x_min":27,"x_max":787,"o":"m 27 0 l 27 136 l 54 136 q 72 87 54 106 q 122 68 90 68 l 271 68 l 271 171 q 110 279 193 182 q 27 545 27 377 q 129 818 27 716 q 407 920 231 920 q 678 818 570 920 q 787 545 787 716 q 701 275 787 377 q 543 171 616 174 l 543 68 l 692 68 q 745 84 730 68 q 760 138 760 100 l 787 136 l 787 0 l 475 0 l 475 239 q 601 320 551 252 q 651 545 651 388 q 576 768 651 684 q 407 852 502 852 q 236 768 309 852 q 163 545 163 684 q 209 323 163 388 q 339 239 255 258 l 339 0 l 27 0 z "},"R":{"ha":770,"x_min":14,"x_max":757,"o":"m 14 0 l 14 35 q 77 47 60 35 q 95 90 95 60 l 95 825 q 77 873 95 863 q 14 884 60 884 l 14 920 l 312 920 q 540 872 450 920 q 629 673 629 825 q 559 479 629 534 q 444 426 492 426 q 439 426 441 426 l 646 90 q 693 49 673 62 q 757 35 713 35 l 757 0 l 439 0 l 439 35 q 499 47 480 35 q 509 66 509 54 q 502 90 509 76 l 304 426 l 231 426 l 231 90 q 248 47 231 60 q 312 35 266 35 l 312 0 l 14 0 m 231 494 l 350 494 q 460 537 429 494 q 491 689 491 581 q 452 821 491 789 q 320 852 412 852 l 231 852 l 231 494 z "},"!":{"ha":502,"x_min":155,"x_max":306,"o":"m 231 150 q 284 128 262 150 q 306 75 306 106 q 284 22 306 44 q 231 0 262 0 q 177 22 199 0 q 155 75 155 44 q 177 128 155 106 q 231 150 199 150 m 203 301 l 258 301 l 304 798 q 304 819 304 808 q 270 911 304 892 q 231 922 250 922 q 190 911 210 922 q 156 827 156 893 q 157 798 156 813 l 203 301 z "},"\"":{"ha":502,"x_min":115,"x_max":387,"o":"m 357 543 l 330 543 l 305 754 q 299 838 299 804 q 316 905 299 894 q 343 913 330 913 q 370 905 357 913 q 387 838 387 894 q 381 754 387 804 l 357 543 m 172 543 l 145 543 l 121 754 q 115 838 115 804 q 132 905 115 894 q 159 913 145 913 q 186 905 172 913 q 203 838 203 894 q 197 754 203 804 l 172 543 z "},"C":{"ha":890,"x_min":68,"x_max":822,"o":"m 68 458 q 157 774 68 643 q 420 920 247 906 q 469 921 446 921 q 576 911 527 921 q 670 879 646 898 q 694 871 684 871 q 704 875 700 871 q 711 905 711 882 q 711 920 711 911 l 754 920 l 822 681 l 781 681 q 617 834 700 800 q 488 857 562 857 q 412 852 452 857 q 245 682 304 830 q 200 471 200 567 q 203 418 200 444 q 274 171 217 263 q 461 68 331 79 q 669 130 589 73 q 781 304 749 187 l 822 304 q 690 75 789 149 q 420 0 591 0 q 170 118 271 0 q 68 458 68 236 z "},"D":{"ha":814,"x_min":14,"x_max":746,"o":"m 14 0 l 14 35 q 73 45 52 35 q 95 90 95 54 l 95 825 q 71 875 95 865 q 14 884 46 884 l 14 920 l 372 920 q 633 819 521 920 q 746 426 746 719 q 669 88 746 176 q 488 0 591 0 l 14 0 m 231 68 l 377 68 q 544 127 477 68 q 610 429 610 187 q 540 749 610 646 q 315 852 469 852 l 231 852 l 231 68 z "},"L":{"ha":800,"x_min":14,"x_max":743,"o":"m 14 0 l 14 35 q 77 47 60 35 q 95 90 95 60 l 95 825 q 77 873 95 863 q 14 884 60 884 l 14 920 l 312 920 l 312 884 q 248 873 266 884 q 231 825 231 863 l 231 68 l 518 68 q 636 107 591 68 q 700 220 681 146 l 743 220 l 692 0 l 14 0 z "},"M":{"ha":1128,"x_min":14,"x_max":1115,"o":"m 14 0 l 14 35 q 77 47 60 35 q 95 90 95 60 l 95 825 q 77 873 95 863 q 14 884 60 884 l 14 920 l 201 920 l 556 350 l 906 920 l 1115 920 l 1115 884 q 1051 873 1069 884 q 1034 825 1034 863 l 1034 90 q 1051 47 1034 60 q 1115 35 1069 35 l 1115 0 l 817 0 l 817 35 q 880 47 863 35 q 898 90 898 60 l 898 789 l 591 296 l 529 193 l 163 789 l 163 90 q 180 47 163 60 q 244 35 198 35 l 244 0 l 14 0 z "},"X":{"ha":819,"x_min":14,"x_max":806,"o":"m 806 920 l 806 884 q 764 872 779 884 q 724 825 749 860 l 461 477 l 724 90 q 761 50 746 65 q 806 35 776 35 l 806 0 l 507 0 l 507 35 q 585 49 562 35 q 597 68 597 56 q 589 90 597 77 l 385 380 l 163 90 q 153 66 153 76 q 163 49 153 56 q 244 35 182 35 l 244 0 l 14 0 l 14 35 q 57 49 43 35 q 95 90 71 62 l 350 429 l 95 825 q 57 872 73 860 q 14 884 41 884 l 14 920 l 312 920 l 312 884 q 235 871 258 884 q 222 850 222 863 q 231 825 222 840 l 426 526 l 656 825 q 668 850 668 839 q 654 869 668 861 q 575 884 627 884 l 575 920 l 806 920 z "},"a":{"ha":898,"x_min":14,"x_max":882,"o":"m 258 0 l 14 0 l 14 35 q 84 53 62 35 q 122 122 106 71 l 393 920 l 502 920 l 773 122 q 807 57 787 79 q 882 35 827 35 l 882 0 l 570 0 l 570 35 q 637 57 624 35 q 644 84 644 68 q 637 122 644 100 l 415 803 l 190 122 q 181 79 181 96 q 189 54 181 63 q 258 35 203 35 l 258 0 z "},"b":{"ha":787,"x_min":14,"x_max":719,"o":"m 14 0 l 14 35 q 76 47 57 35 q 95 90 95 60 l 95 825 q 76 871 95 857 q 14 884 57 884 l 14 920 l 391 920 q 609 871 534 920 q 684 708 684 822 q 640 549 684 602 q 524 496 597 496 q 670 430 621 496 q 719 250 719 363 q 644 54 719 109 q 445 0 570 0 l 14 0 m 231 526 l 385 526 q 507 566 467 526 q 548 697 548 605 q 506 821 548 789 q 385 852 464 852 l 231 852 l 231 526 m 231 68 l 412 68 q 537 114 491 68 q 583 244 583 160 q 538 407 583 355 q 388 458 494 458 l 231 458 l 231 68 z "},"c":{"ha":890,"x_min":68,"x_max":822,"o":"m 68 458 q 157 774 68 643 q 420 920 247 906 q 469 921 446 921 q 576 911 527 921 q 670 879 646 898 q 694 871 684 871 q 704 875 700 871 q 711 905 711 882 q 711 920 711 911 l 754 920 l 822 681 l 781 681 q 617 834 700 800 q 488 857 562 857 q 412 852 452 857 q 245 682 304 830 q 200 471 200 567 q 203 418 200 444 q 274 171 217 263 q 461 68 331 79 q 669 130 589 73 q 781 304 749 187 l 822 304 q 690 75 789 149 q 420 0 591 0 q 170 118 271 0 q 68 458 68 236 z "},"d":{"ha":814,"x_min":14,"x_max":746,"o":"m 14 0 l 14 35 q 73 45 52 35 q 95 90 95 54 l 95 825 q 71 875 95 865 q 14 884 46 884 l 14 920 l 372 920 q 633 819 521 920 q 746 426 746 719 q 669 88 746 176 q 488 0 591 0 l 14 0 m 231 68 l 377 68 q 544 127 477 68 q 610 429 610 187 q 540 749 610 646 q 315 852 469 852 l 231 852 l 231 68 z "},"f":{"ha":795,"x_min":14,"x_max":732,"o":"m 14 0 l 14 35 q 77 47 60 35 q 95 90 95 60 l 95 825 q 77 873 95 863 q 14 884 60 884 l 14 920 l 732 920 l 732 760 l 692 760 q 667 830 692 808 q 602 852 643 852 l 231 852 l 231 90 q 248 47 231 60 q 312 35 266 35 l 312 0 l 14 0 z "},"g":{"ha":882,"x_min":68,"x_max":822,"o":"m 68 458 q 157 755 68 613 q 420 920 247 898 q 475 921 450 921 q 583 910 543 921 q 670 879 637 895 q 694 871 684 871 q 704 875 700 871 q 711 905 711 882 q 711 920 711 911 l 754 920 l 822 681 l 781 681 q 617 834 700 800 q 488 857 562 857 q 412 852 452 857 q 239 678 290 822 q 199 475 199 569 q 203 418 199 446 q 274 171 217 263 q 461 68 331 79 q 631 145 583 68 q 678 317 678 222 q 661 359 678 347 q 597 372 643 372 l 597 407 l 814 407 l 814 0 q 750 20 776 0 q 713 79 724 41 q 595 16 665 35 q 447 -1 535 0 q 420 0 434 -1 q 170 118 271 0 q 68 458 68 236 z "},"h":{"ha":825,"x_min":14,"x_max":811,"o":"m 14 0 l 14 35 q 77 47 60 35 q 95 90 95 60 l 95 825 q 77 873 95 863 q 14 884 60 884 l 14 920 l 312 920 l 312 884 q 248 873 266 884 q 231 825 231 863 l 231 526 l 594 526 l 594 825 q 576 873 594 863 q 513 884 559 884 l 513 920 l 811 920 l 811 884 q 746 873 765 884 q 729 833 730 864 q 730 825 729 829 l 730 90 q 747 47 730 60 q 811 35 765 35 l 811 0 l 513 0 l 513 35 q 576 47 559 35 q 594 90 594 60 l 594 458 l 231 458 l 231 90 q 248 47 231 60 q 312 35 266 35 l 312 0 l 14 0 z "},"i":{"ha":689,"x_min":27,"x_max":651,"o":"m 190 0 l 190 35 q 254 47 236 35 q 271 90 271 60 l 271 203 q 100 285 174 206 q 27 461 27 363 q 100 632 30 556 q 271 716 171 708 l 271 825 q 254 873 271 863 q 190 884 236 884 l 190 920 l 488 920 l 488 884 q 425 873 442 884 q 407 825 407 863 l 407 716 q 414 716 410 716 q 578 642 507 716 q 651 461 651 564 q 578 288 648 366 q 407 203 507 209 l 407 90 q 425 47 407 60 q 488 35 442 35 l 488 0 l 190 0 m 407 648 l 407 271 q 491 343 464 298 q 515 448 515 384 q 515 461 515 454 q 494 579 515 524 q 407 648 472 635 m 271 271 l 271 648 q 187 578 212 632 q 163 461 163 524 q 184 347 163 396 q 271 271 206 298 z "},"j":{"ha":326,"x_min":14,"x_max":312,"o":"m 14 -122 q 80 -53 65 -95 q 95 90 95 -11 l 95 825 q 77 873 95 863 q 14 884 60 884 l 14 920 l 312 920 l 312 884 q 248 873 266 884 q 231 825 231 863 l 231 90 q 176 -66 231 -8 q 14 -155 122 -125 l 14 -122 z "},"k":{"ha":868,"x_min":14,"x_max":854,"o":"m 14 0 l 14 35 q 77 47 60 35 q 95 90 95 60 l 95 825 q 77 873 95 863 q 14 884 60 884 l 14 920 l 312 920 l 312 884 q 248 873 266 884 q 231 825 231 863 l 231 494 l 567 830 q 583 856 583 845 q 576 869 583 863 q 513 884 559 884 l 513 920 l 743 920 l 743 884 q 684 873 703 884 q 632 830 665 863 l 412 610 l 730 90 q 776 49 749 62 q 854 35 803 35 l 854 0 l 513 0 l 513 35 q 585 50 559 35 q 600 72 600 59 q 594 90 600 80 l 334 529 l 231 426 l 231 90 q 248 47 231 60 q 312 35 266 35 l 312 0 l 14 0 z "},"l":{"ha":800,"x_min":14,"x_max":743,"o":"m 14 0 l 14 35 q 77 47 60 35 q 95 90 95 60 l 95 825 q 77 873 95 863 q 14 884 60 884 l 14 920 l 312 920 l 312 884 q 248 873 266 884 q 231 825 231 863 l 231 68 l 518 68 q 636 107 591 68 q 700 220 681 146 l 743 220 l 692 0 l 14 0 z "},"m":{"ha":1128,"x_min":14,"x_max":1115,"o":"m 14 0 l 14 35 q 77 47 60 35 q 95 90 95 60 l 95 825 q 77 873 95 863 q 14 884 60 884 l 14 920 l 201 920 l 556 350 l 906 920 l 1115 920 l 1115 884 q 1051 873 1069 884 q 1034 825 1034 863 l 1034 90 q 1051 47 1034 60 q 1115 35 1069 35 l 1115 0 l 817 0 l 817 35 q 880 47 863 35 q 898 90 898 60 l 898 789 l 591 296 l 529 193 l 163 789 l 163 90 q 180 47 163 60 q 244 35 198 35 l 244 0 l 14 0 z "},"n":{"ha":868,"x_min":14,"x_max":854,"o":"m 14 920 l 14 884 q 77 872 60 884 q 95 830 95 860 l 95 95 q 77 46 95 57 q 14 35 60 35 l 14 0 l 312 0 l 312 35 q 248 46 266 35 q 231 95 231 57 l 231 852 l 637 852 l 637 95 q 620 46 637 57 q 556 35 602 35 l 556 0 l 854 0 l 854 35 q 791 46 808 35 q 773 95 773 57 l 773 830 q 792 872 773 860 q 854 884 811 884 l 854 920 l 14 920 z "},"p":{"ha":697,"x_min":14,"x_max":629,"o":"m 14 0 l 14 35 q 77 47 60 35 q 95 90 95 60 l 95 825 q 77 873 95 863 q 14 884 60 884 l 14 920 l 312 920 q 540 872 450 920 q 629 673 629 825 q 549 480 629 534 q 363 426 469 426 l 231 426 l 231 90 q 248 47 231 60 q 312 35 266 35 l 312 0 l 14 0 m 231 494 l 350 494 q 460 537 429 494 q 491 689 491 581 q 452 821 491 789 q 320 852 412 852 l 231 852 l 231 494 z "},"q":{"ha":1055,"x_min":68,"x_max":1031,"o":"m 526 920 q 851 785 715 920 q 987 464 987 650 q 851 139 987 278 q 553 0 715 0 q 716 -14 643 0 q 834 -39 789 -27 q 876 -43 849 -43 q 1031 -27 930 -43 q 817 -92 913 -92 q 808 -92 812 -92 q 635 -68 708 -90 q 483 -43 562 -43 q 293 -73 404 -43 q 499 0 353 0 q 200 139 332 0 q 68 464 68 278 q 200 788 68 656 q 526 920 332 920 m 499 852 q 285 728 377 838 q 202 470 202 630 q 203 431 202 451 q 311 176 217 282 q 553 68 404 71 q 779 184 700 79 q 852 460 852 283 q 852 486 852 473 q 741 747 838 637 q 513 852 648 852 q 499 852 506 852 z "},"s":{"ha":662,"x_min":68,"x_max":594,"o":"m 103 0 l 68 176 l 103 176 q 199 90 149 111 q 331 68 250 68 q 425 110 391 68 q 458 236 458 152 q 423 345 458 309 q 307 410 388 380 q 159 509 217 439 q 100 689 100 578 q 165 856 100 792 q 331 920 231 920 q 400 911 377 920 q 458 882 423 903 q 484 872 475 872 q 495 876 491 872 q 500 890 500 881 q 494 920 500 902 l 534 920 l 564 779 l 526 779 q 435 842 461 833 q 331 852 410 852 q 255 810 285 852 q 225 713 225 768 q 262 605 225 651 q 385 524 298 559 q 521 439 448 499 q 594 263 594 380 q 514 68 594 136 q 331 0 434 0 q 252 5 282 0 q 195 27 222 11 q 164 40 176 40 q 155 37 158 40 q 146 10 146 29 q 146 0 146 5 l 103 0 z "},"t":{"ha":887,"x_min":22,"x_max":865,"o":"m 293 0 l 293 35 q 357 47 339 35 q 374 90 374 60 l 374 852 l 184 852 q 109 831 136 852 q 62 760 81 811 l 22 760 l 79 920 l 808 920 l 865 760 l 825 760 q 779 831 806 811 q 700 852 751 852 l 510 852 l 510 90 q 528 47 510 60 q 591 35 545 35 l 591 0 l 293 0 z "},"u":{"ha":819,"x_min":14,"x_max":806,"o":"m 806 920 l 806 884 q 755 873 770 884 q 724 825 741 863 l 415 0 l 374 0 l 95 825 q 66 873 84 863 q 14 884 49 884 l 14 920 l 312 920 l 312 884 q 243 873 266 884 q 227 846 227 866 q 231 825 227 837 l 434 214 l 656 825 q 661 848 661 838 q 646 873 661 867 q 575 884 621 884 l 575 920 l 806 920 z "},"v":{"ha":819,"x_min":14,"x_max":806,"o":"m 806 920 l 806 884 q 755 873 770 884 q 724 825 741 863 l 415 0 l 374 0 l 95 825 q 66 873 84 863 q 14 884 49 884 l 14 920 l 312 920 l 312 884 q 243 873 266 884 q 227 846 227 866 q 231 825 227 837 l 434 214 l 656 825 q 661 848 661 838 q 646 873 661 867 q 575 884 621 884 l 575 920 l 806 920 z "},"w":{"ha":1267,"x_min":14,"x_max":1253,"o":"m 1253 920 l 1253 884 q 1203 873 1218 884 q 1172 825 1188 863 l 863 0 l 822 0 l 640 532 l 415 0 l 374 0 l 95 825 q 66 873 84 863 q 14 884 49 884 l 14 920 l 312 920 l 312 884 q 243 873 266 884 q 227 846 227 866 q 231 825 227 837 l 434 214 l 605 629 l 543 825 q 514 873 532 863 q 461 884 496 884 l 461 920 l 760 920 l 760 884 q 690 873 713 884 q 675 846 675 866 q 678 825 675 837 l 882 214 l 1104 825 q 1109 848 1109 838 q 1093 873 1109 867 q 1023 884 1069 884 l 1023 920 l 1253 920 z "},"x":{"ha":819,"x_min":14,"x_max":806,"o":"m 806 920 l 806 884 q 764 872 779 884 q 724 825 749 860 l 461 477 l 724 90 q 761 50 746 65 q 806 35 776 35 l 806 0 l 507 0 l 507 35 q 585 49 562 35 q 597 68 597 56 q 589 90 597 77 l 385 380 l 163 90 q 153 66 153 76 q 163 49 153 56 q 244 35 182 35 l 244 0 l 14 0 l 14 35 q 57 49 43 35 q 95 90 71 62 l 350 429 l 95 825 q 57 872 73 860 q 14 884 41 884 l 14 920 l 312 920 l 312 884 q 235 871 258 884 q 222 850 222 863 q 231 825 222 840 l 426 526 l 656 825 q 668 850 668 839 q 654 869 668 861 q 575 884 627 884 l 575 920 l 806 920 z "},"y":{"ha":817,"x_min":14,"x_max":800,"o":"m 800 920 l 800 863 q 761 849 770 863 q 751 806 751 836 q 675 555 751 665 q 477 439 600 445 l 477 90 q 495 47 477 60 q 559 35 513 35 l 559 0 l 260 0 l 260 35 q 324 47 307 35 q 342 90 342 60 l 342 439 q 133 559 203 450 q 62 806 62 667 q 63 816 63 811 q 53 848 63 838 q 14 863 41 860 l 14 920 l 95 920 q 149 892 130 920 q 171 808 168 865 q 213 589 171 675 q 342 502 255 502 l 342 825 q 328 869 342 854 q 260 884 315 884 l 260 920 l 559 920 l 559 884 q 494 869 510 884 q 477 825 477 854 l 477 502 q 594 595 551 502 q 643 806 637 689 q 659 888 643 857 q 719 920 675 920 l 800 920 z "},"z":{"ha":933,"x_min":68,"x_max":865,"o":"m 68 0 l 68 35 l 700 852 l 293 852 q 175 812 220 852 q 111 700 130 773 l 68 700 l 119 920 l 865 920 l 865 884 l 222 68 l 640 68 q 758 107 713 68 q 822 220 803 146 l 865 220 l 814 0 l 68 0 z "}}}
